<svg width="current" height="current" viewBox="0 0 24 24" fill="none" xmlns="http://www.w3.org/2000/svg">
<path d="M8.625 21.375C8.625 21.375 7.875 18.375 9.375 16.875C9.375 16.875 6.375 16.875 4.125 14.625C1.875 12.375 2.625 7.875 4.125 6.375C3.375 4.125 4.875 2.625 4.875 2.625C4.875 2.625 7.125 2.625 8.625 4.125C10.125 3.375 13.875 3.375 15.375 4.125C16.875 2.625 19.125 2.625 19.125 2.625C19.125 2.625 20.625 4.125 19.875 6.375C21.375 7.875 22.125 12.375 19.875 14.625C17.625 16.875 14.625 16.875 14.625 16.875C16.125 18.375 15.375 21.375 15.375 21.375M7.875 20.625C5.625 21.375 3.375 19.875 2.625 19.125" stroke="currentColor" stroke-width="2.25" stroke-linecap="round" stroke-linejoin="round"/>
</svg>
