<svg width="current" height="current" viewBox="0 0 24 24" fill="none" xmlns="http://www.w3.org/2000/svg">
<path d="M6.104 5.91005C6.688 6.38405 6.906 6.34805 8.002 6.27505L18.334 5.65505C18.554 5.65505 18.371 5.43505 18.298 5.39905L16.582 4.15905C16.253 3.90405 15.815 3.61105 14.976 3.68405L4.971 4.41405C4.607 4.45005 4.534 4.63305 4.679 4.77905L6.104 5.91005ZM6.724 8.31805V19.1881C6.724 19.7731 7.016 19.9911 7.674 19.9551L19.028 19.2981C19.685 19.2621 19.758 18.8601 19.758 18.3851V7.58805C19.758 7.11405 19.576 6.85805 19.174 6.89505L7.308 7.58805C6.87 7.62405 6.724 7.84305 6.724 8.31805ZM17.934 8.90105C18.006 9.22905 17.934 9.55805 17.604 9.59505L17.057 9.70405V17.7291C16.582 17.9851 16.144 18.1301 15.779 18.1301C15.195 18.1301 15.049 17.9481 14.611 17.4011L11.032 11.7831V17.2191L12.165 17.4741C12.165 17.4741 12.165 18.1301 11.251 18.1301L8.732 18.2761C8.659 18.1301 8.732 17.7661 8.988 17.6931L9.645 17.5111V10.3241L8.732 10.2511C8.659 9.92205 8.842 9.44805 9.353 9.41105L12.055 9.22905L15.779 14.9211V9.88605L14.829 9.77705C14.757 9.37505 15.049 9.08405 15.414 9.04705L17.934 8.90105ZM4.131 3.42905L14.537 2.66305C15.814 2.55305 16.143 2.62705 16.947 3.21005L20.268 5.54505C20.816 5.94605 20.999 6.05505 20.999 6.49305V19.2981C20.999 20.1011 20.707 20.5751 19.685 20.6481L7.6 21.3781C6.833 21.4141 6.468 21.3051 6.066 20.7941L3.62 17.6201C3.182 17.0361 3 16.5991 3 16.0871V4.70505C3 4.04905 3.291 3.50205 4.131 3.42905Z" fill="currentColor"/>
</svg>
