<svg width="current" height="current"  viewBox="0 0 24 24" fill="none" xmlns="http://www.w3.org/2000/svg">
<path d="M21.9001 2.21235C21.1898 1.50204 19.875 1.46444 19.0363 1.89417C18.352 2.12914 17.6311 2.39413 16.8959 2.69127L16.9037 2.69919C14.9721 3.5197 12.0831 4.97833 9.77094 7.12494C8.14777 8.63188 7.21777 9.79196 6.59487 10.8486L2.6212 12.3113C2.10746 12.5004 1.96285 13.1583 2.34995 13.5454C5.13432 16.3298 7.91869 19.1142 10.7031 21.8986C11.0902 22.2856 11.7481 22.141 11.9372 21.6273L13.5898 17.1379C14.7963 16.4192 16.0069 15.5141 17.2709 14.25C19.0637 12.4572 20.5452 9.33067 21.406 7.23238L21.4122 7.23865C21.713 6.49577 21.981 5.76728 22.2183 5.07615C22.648 4.23749 22.7732 3.08544 21.9001 2.21235Z" fill="#CA0B4A"/>
<path d="M17.474 3.27344C15.5864 4.05314 12.6155 5.50749 10.2812 7.6746C8.77029 9.07733 7.90304 10.1454 7.32675 11.0867C6.74997 12.0287 6.44543 12.8722 6.07966 13.892L6.07778 13.8973C5.95015 14.2531 5.81484 14.6304 5.65887 15.0331L9.07547 18.4497C11.7773 17.3407 14.1309 16.3293 16.7406 13.7197C18.5042 11.9561 19.9948 8.73792 20.8314 6.65382L17.474 3.27344Z" fill="#F4F4F4"/>
<path d="M18.3958 8.4375C18.3958 9.78369 17.3045 10.875 15.9583 10.875C14.6121 10.875 13.5208 9.78369 13.5208 8.4375C13.5208 7.09131 14.6121 6 15.9583 6C17.3045 6 18.3958 7.09131 18.3958 8.4375Z" fill="#9B9B9B"/>
<path d="M17.6458 8.4375C17.6458 9.36948 16.8903 10.125 15.9583 10.125C15.0263 10.125 14.2708 9.36948 14.2708 8.4375C14.2708 7.50552 15.0263 6.75 15.9583 6.75C16.8903 6.75 17.6458 7.50552 17.6458 8.4375Z" fill="#83CBFF"/>
<path d="M1.8384 22.2081C1.30807 21.6778 1.52082 18 3.39581 17.25C3.39581 17.25 5.27081 16.5 6.47907 17.7004C7.68732 18.9008 7.14581 20.2499 7.14581 20.2499C6.61549 21.8409 4.35773 22.4733 4.09257 22.2082C3.94613 22.0617 4.20984 21.7951 4.09258 21.6779C3.97532 21.5606 3.79426 21.6944 3.29709 21.943C2.94353 22.1198 2.05053 22.4203 1.8384 22.2081Z" fill="#FF8257"/>
<path d="M4.56632 15.7956C5.00566 15.3562 5.71797 15.3562 6.15731 15.7956L8.80896 18.4472C9.2483 18.8866 9.2483 19.5989 8.80896 20.0382C8.36962 20.4775 7.65731 20.4775 7.21797 20.0382L4.56632 17.3866C4.12698 16.9472 4.12698 16.2349 4.56632 15.7956Z" fill="#533566"/>
<path d="M11.6513 14.0414C11.9828 13.1411 11.1074 12.2656 10.207 12.5971L4.8712 14.5612C4.35746 14.7503 4.21285 15.4082 4.59995 15.7953L8.45307 19.6485C8.84016 20.0356 9.49812 19.8909 9.68723 19.3772L11.6513 14.0414Z" fill="#F92F60"/>
</svg>
