<svg width="current" height="current" viewBox="0 0 24 24" fill="none" xmlns="http://www.w3.org/2000/svg">
<path fill-rule="evenodd" clip-rule="evenodd" d="M12 15.667C11.5185 15.667 11.0417 15.5722 10.5969 15.3879C10.1521 15.2036 9.74786 14.9336 9.40739 14.5931C9.06693 14.2526 8.79685 13.8484 8.6126 13.4036C8.42834 12.9588 8.3335 12.482 8.3335 12.0005C8.3335 11.519 8.42834 11.0422 8.6126 10.5974C8.79685 10.1526 9.06693 9.74836 9.40739 9.40789C9.74786 9.06743 10.1521 8.79735 10.5969 8.6131C11.0417 8.42884 11.5185 8.334 12 8.334C12.9724 8.334 13.905 8.72029 14.5926 9.40789C15.2802 10.0955 15.6665 11.0281 15.6665 12.0005C15.6665 12.9729 15.2802 13.9055 14.5926 14.5931C13.905 15.2807 12.9724 15.667 12 15.667ZM21.033 13.952C20.53 13.4311 20.2492 12.7351 20.25 12.011V11.99C20.2492 11.2659 20.53 10.5699 21.033 10.049L21.972 9.079C22.358 8.679 22.432 8.071 22.155 7.59L20.897 5.412C20.762 5.17755 20.5542 4.9935 20.3052 4.88775C20.0562 4.78201 19.7795 4.76033 19.517 4.826L18.202 5.154C17.4958 5.3308 16.7485 5.2242 16.12 4.857L16.102 4.847C15.4829 4.48722 15.0274 3.90155 14.831 3.213L14.455 1.904C14.3809 1.64368 14.2239 1.41462 14.0079 1.2515C13.7919 1.08837 13.5287 1.00008 13.258 1H10.742C10.187 1 9.697 1.369 9.545 1.904L9.14 3.313C8.96218 3.94272 8.54418 4.47743 7.976 4.802C7.91731 4.83482 7.8593 4.86882 7.802 4.904C7.23191 5.2435 6.55058 5.34345 5.907 5.182L4.482 4.826C4.21965 4.76041 3.94308 4.78202 3.6941 4.88756C3.44512 4.99311 3.23728 5.17685 3.102 5.411L1.845 7.59C1.7098 7.82444 1.65453 8.09649 1.68754 8.3651C1.72056 8.6337 1.84005 8.88428 2.028 9.079L2.967 10.049C3.47 10.57 3.751 11.266 3.751 11.989V12.011C3.751 12.735 3.47 13.431 2.967 13.952L2.464 14.472C2.15033 14.7963 1.9508 15.214 1.89559 15.6618C1.84038 16.1096 1.93249 16.5632 2.158 16.954L3.103 18.589C3.381 19.071 3.943 19.31 4.483 19.175L5.908 18.819C6.55158 18.6576 7.23291 18.7575 7.803 19.097C7.86 19.132 7.918 19.166 7.977 19.199C8.546 19.521 8.961 20.058 9.141 20.688L9.545 22.097C9.697 22.632 10.187 23 10.742 23H13.258C13.813 23 14.303 22.632 14.455 22.097L14.859 20.688C15.039 20.058 15.454 19.521 16.023 19.199C16.082 19.166 16.14 19.132 16.197 19.097C16.7671 18.7575 17.4484 18.6576 18.092 18.819L19.517 19.175C19.7793 19.2406 20.0559 19.219 20.3049 19.1134C20.5539 19.0079 20.7617 18.8242 20.897 18.59L22.155 16.411C22.2902 16.1766 22.3455 15.9045 22.3125 15.6359C22.2794 15.3673 22.1599 15.1167 21.972 14.922L21.032 13.952H21.033Z" fill="currentColor"/>
</svg>
